<?xml version="1.0" standalone="no"?>
<!DOCTYPE svg PUBLIC "-//W3C//DTD SVG 20010904//EN"
 "http://www.w3.org/TR/2001/REC-SVG-20010904/DTD/svg10.dtd">
<svg version="1.0" xmlns="http://www.w3.org/2000/svg"
 width="154.000000pt" height="152.000000pt" viewBox="0 0 154.000000 152.000000"
 preserveAspectRatio="xMidYMid meet">

<g transform="translate(0.000000,152.000000) scale(0.100000,-0.100000)"
fill="#000000" stroke="none">
<path d="M524 1472 c-153 -54 -292 -161 -378 -291 -39 -59 -90 -161 -84 -166
2 -1 30 -12 63 -25 33 -13 94 -40 135 -61 l75 -37 2 92 c3 173 63 309 194 439
43 42 77 77 76 77 -1 0 -38 -13 -83 -28z"/>
<path d="M1017 1448 c54 -47 83 -82 126 -152 53 -85 77 -172 85 -309 l7 -116
55 35 c30 20 85 51 123 70 37 19 67 38 67 42 0 15 -73 149 -105 192 -74 101
-193 194 -313 244 -81 34 -91 33 -45 -6z"/>
<path d="M742 1330 c-18 -50 -15 -130 6 -165 l18 -30 -55 -33 c-104 -62 -175
-153 -196 -250 -6 -28 -2 -38 35 -80 49 -55 122 -200 146 -292 12 -45 18 -105
18 -195 l1 -130 -26 -3 c-69 -8 -265 83 -362 168 -83 73 -164 213 -182 315 -8
39 -7 39 50 -40 112 -158 285 -303 403 -339 21 -7 22 -5 22 57 0 79 -31 202
-67 268 -55 102 -193 204 -391 289 -137 59 -130 58 -138 5 -14 -93 1 -264 30
-350 103 -304 388 -515 696 -515 l68 0 18 67 c14 50 19 101 19 188 -1 142 -15
201 -92 395 -64 161 -72 203 -48 251 22 44 53 77 87 95 38 20 45 17 20 -6 -48
-45 -68 -121 -52 -195 6 -26 35 -101 65 -167 84 -186 107 -264 112 -393 3 -60
1 -134 -5 -163 -10 -58 -5 -62 55 -42 27 10 31 17 41 74 19 101 15 201 -12
301 -30 112 -52 163 -127 296 -64 115 -74 165 -43 219 19 31 63 60 91 60 30 0
64 -30 83 -74 l18 -41 16 37 c20 46 21 117 2 161 -19 46 -75 91 -169 138 -96
47 -112 61 -130 113 l-14 40 -11 -34z m259 -246 c38 -39 34 -52 -9 -30 -24 13
-62 55 -62 70 0 13 42 -10 71 -40z"/>
<path d="M1415 852 c-130 -69 -251 -177 -312 -280 l-25 -43 20 -47 c11 -26 25
-67 32 -91 l12 -44 75 74 c41 41 97 106 125 144 46 64 50 67 43 35 -21 -101
-83 -206 -185 -310 l-51 -52 3 -65 3 -65 66 50 c36 28 89 77 118 109 65 72
146 233 166 328 15 70 20 249 9 279 -9 23 -20 20 -99 -22z"/>
</g>
</svg>
