<svg id="tools-and-utensils_2_" data-name="tools-and-utensils (2)" xmlns="http://www.w3.org/2000/svg" width="13.826" height="14.199" viewBox="0 0 13.826 14.199">
  <g id="Group_2469" data-name="Group 2469" transform="translate(0)">
    <path id="Path_3387" data-name="Path 3387" d="M20.3,8.655,18.992,7.635a5.139,5.139,0,0,0,.031-.536,4.983,4.983,0,0,0-.031-.536L20.3,5.542a.64.64,0,0,0,.154-.815L19.1,2.378a.629.629,0,0,0-.785-.282l-1.54.618a5.28,5.28,0,0,0-.925-.537L15.612.544A.628.628,0,0,0,14.985,0H12.263a.627.627,0,0,0-.626.54L11.4,2.179a5.443,5.443,0,0,0-.923.537L8.936,2.1a.642.642,0,0,0-.779.277L6.8,4.724a.636.636,0,0,0,.154.819L8.256,6.564a4.681,4.681,0,0,0,0,1.071L6.95,8.656a.64.64,0,0,0-.154.815L8.153,11.82a.628.628,0,0,0,.785.282l1.54-.618a5.326,5.326,0,0,0,.924.537l.234,1.633a.628.628,0,0,0,.627.545h2.721a.627.627,0,0,0,.627-.54l.235-1.639a5.468,5.468,0,0,0,.923-.537l1.544.62a.636.636,0,0,0,.232.044.625.625,0,0,0,.547-.321l1.363-2.361A.639.639,0,0,0,20.3,8.655Zm-6.673.81A2.366,2.366,0,1,1,15.99,7.1,2.369,2.369,0,0,1,13.624,9.466Z" transform="translate(-6.71)"/>
  </g>
</svg>
